<svg width="1003" height="491" viewBox="0 0 1003 491" fill="none" xmlns="http://www.w3.org/2000/svg">
<g opacity="0.29827">
<path d="M1008.08 158.448L443.182 -361.858V-752.19L28.1096 -775C24.9043 -767.456 4.36709 -745.715 7.57176 -733.596C11.43 -719.102 30.8387 -723.735 36.4776 -714.409C43.0661 -703.42 31.7291 -658.749 28.3457 -645.86C21.8759 -621.445 7.09676 -601.665 2.82235 -577.25C-4.35982 -536.263 10.1824 -539.53 37.7242 -513.927C84.141 -470.742 46.9244 -425.952 58.6176 -375.223C68.1146 -333.878 109.605 -312.554 124.8 -271.211C136.553 -239.37 152.697 -231.233 177.746 -207.947C177.153 -222.084 164.51 -263.785 188.253 -260.102C211.817 -256.478 202.736 -221.669 207.247 -207.115C211.045 -194.997 237.933 -170.761 215.616 -159.593C208.196 -155.91 187.066 -170.583 178.577 -174.503C184.572 -155.791 180.774 -136.367 190.271 -118.487C201.608 -97.1621 213.835 -105.359 228.853 -93.7755C244.344 -81.8356 242.683 -68.1137 235.797 -50.0555C228.615 -31.2247 221.196 -34.1353 232.592 -11.4435C240.843 4.95113 254.85 25.742 266.9 38.2163C273.904 45.4633 281.502 47.1267 288.506 56.3932C294.323 64.1154 292.067 74.2142 299.012 81.1638C310.883 93.1036 331.006 93.2819 340.384 108.904C350.831 126.309 338.96 139.437 369.706 137.832C371.309 172.643 377.897 204.185 377.541 238.994C394.695 245.825 422.414 237.687 440.399 234.063C458.266 258.18 481.355 241.429 501.774 254.558C510.678 260.26 508.837 274.517 514.239 279.506C525.339 289.723 533.529 283.308 547.301 286.872C557.51 289.486 565.404 296.97 575.138 299.703C584.338 302.257 599.475 296.258 606.301 304.396C614.492 314.138 600.78 331.958 613.127 339.799C623.395 346.333 638.115 330.77 648.088 333.027C659.721 335.7 693.079 366.174 701.271 376.212C710.59 387.677 719.969 409.062 725.25 423.793C733.501 446.841 732.373 458.127 749.408 474.998C760.27 485.75 749.942 486.522 767.63 489.67C779.204 491.749 794.518 483.373 806.212 482.067C830.549 479.394 855.122 484.027 879.102 479.453C901.421 475.176 922.729 468.166 945.64 464.899C965.465 462.048 1000.37 464.246 1017.94 454.801C1036.99 444.643 1038.71 421.654 1011.17 425.932C1008.97 411.26 1018.77 391.003 1007.85 380.846C1023.04 360.056 1028.56 345.384 1030.93 319.959C1032 308.792 1032.48 296.436 1038 287.05C1043.4 277.783 1058.59 272.259 1061.56 264.299C1066.13 251.943 1058.83 246.419 1053.25 239.528C1049.69 235.073 1039.54 237.212 1036.63 233.291C1031.23 226.103 1036.57 218.678 1033.6 211.431C1024.94 190.462 1014.61 182.205 1008.08 158.444C1008.26 162.424 1008.44 166.463 1008.2 170.384" stroke="white" stroke-width="2" stroke-linecap="round" stroke-linejoin="round"/>
</g>
<path d="M730.393 85.0698C736.962 95.5311 784.96 129.103 789 141C796.467 162.986 784.5 173.5 793 199.5C809.5 230 834.5 224 846 275.5C846 300.5 825.28 310.243 820 318C804 331.5 771.5 341.294 749.5 341.294C728 344.794 714 330.5 701 330.5C674 322.5 661.5 353.5 661.5 353.5" stroke="white" stroke-width="2" stroke-linecap="round" stroke-linejoin="round"/>
<path fill-rule="evenodd" clip-rule="evenodd" d="M661.5 360C665.09 360 668 357.09 668 353.5C668 349.91 665.09 347 661.5 347C657.91 347 655 349.91 655 353.5C655 357.09 657.91 360 661.5 360Z" fill="#4AF6CD"/>
<path fill-rule="evenodd" clip-rule="evenodd" d="M359 231C360.657 231 362 229.657 362 228C362 226.343 360.657 225 359 225C357.343 225 356 226.343 356 228C356 229.657 357.343 231 359 231Z" fill="#4AF6CD"/>
<path fill-rule="evenodd" clip-rule="evenodd" d="M725 466C726.657 466 728 464.657 728 463C728 461.343 726.657 460 725 460C723.343 460 722 461.343 722 463C722 464.657 723.343 466 725 466Z" fill="#4AF6CD"/>
<path fill-rule="evenodd" clip-rule="evenodd" d="M578 322C579.657 322 581 320.657 581 319C581 317.343 579.657 316 578 316C576.343 316 575 317.343 575 319C575 320.657 576.343 322 578 322Z" fill="#4AF6CD"/>
<path fill-rule="evenodd" clip-rule="evenodd" d="M729.5 85.9999C733.09 85.9999 736 83.0898 736 79.4999C736 75.9101 733.09 72.9999 729.5 72.9999C725.91 72.9999 723 75.9101 723 79.4999C723 83.0898 725.91 85.9999 729.5 85.9999Z" fill="#4AF6CD"/>
<path d="M528.021 369.976L527.845 371.192H523.573V374.792H527.285V376.008H523.573V379.784H528.149V381H522.053V369.976H528.021ZM536.028 379.032C536.028 379.373 536.087 379.629 536.204 379.8C536.321 379.96 536.497 380.083 536.732 380.168L536.396 381.192C535.959 381.139 535.607 381.016 535.34 380.824C535.073 380.632 534.876 380.333 534.748 379.928C534.183 380.771 533.345 381.192 532.236 381.192C531.404 381.192 530.748 380.957 530.268 380.488C529.788 380.019 529.548 379.405 529.548 378.648C529.548 377.752 529.868 377.064 530.508 376.584C531.159 376.104 532.076 375.864 533.26 375.864H534.556V375.24C534.556 374.643 534.412 374.216 534.124 373.96C533.836 373.704 533.393 373.576 532.796 373.576C532.177 373.576 531.42 373.725 530.524 374.024L530.156 372.952C531.201 372.568 532.172 372.376 533.068 372.376C534.06 372.376 534.801 372.621 535.292 373.112C535.783 373.592 536.028 374.28 536.028 375.176V379.032ZM532.572 380.088C533.415 380.088 534.076 379.651 534.556 378.776V376.84H533.452C531.895 376.84 531.116 377.416 531.116 378.568C531.116 379.069 531.239 379.448 531.484 379.704C531.729 379.96 532.092 380.088 532.572 380.088ZM541.183 372.376C541.759 372.376 542.276 372.456 542.735 372.616C543.194 372.776 543.631 373.016 544.047 373.336L543.423 374.264C543.039 374.019 542.671 373.837 542.319 373.72C541.978 373.603 541.615 373.544 541.231 373.544C540.751 373.544 540.372 373.645 540.095 373.848C539.818 374.04 539.679 374.307 539.679 374.648C539.679 374.989 539.807 375.256 540.063 375.448C540.33 375.64 540.804 375.827 541.487 376.008C542.426 376.243 543.124 376.563 543.583 376.968C544.052 377.373 544.287 377.928 544.287 378.632C544.287 379.464 543.962 380.099 543.311 380.536C542.671 380.973 541.887 381.192 540.959 381.192C539.679 381.192 538.618 380.824 537.775 380.088L538.559 379.192C539.274 379.736 540.063 380.008 540.927 380.008C541.482 380.008 541.919 379.896 542.239 379.672C542.57 379.437 542.735 379.123 542.735 378.728C542.735 378.44 542.676 378.211 542.559 378.04C542.442 377.859 542.239 377.704 541.951 377.576C541.663 377.437 541.242 377.293 540.687 377.144C539.791 376.909 539.14 376.595 538.735 376.2C538.34 375.805 538.143 375.304 538.143 374.696C538.143 374.259 538.271 373.864 538.527 373.512C538.794 373.149 539.156 372.872 539.615 372.68C540.084 372.477 540.607 372.376 541.183 372.376ZM550.62 380.616C550.065 381 549.436 381.192 548.732 381.192C548.017 381.192 547.457 380.989 547.052 380.584C546.657 380.168 546.46 379.571 546.46 378.792V373.704H544.988V372.568H546.46V370.664L547.932 370.488V372.568H549.932L549.772 373.704H547.932V378.728C547.932 379.165 548.006 379.485 548.156 379.688C548.316 379.88 548.577 379.976 548.94 379.976C549.27 379.976 549.644 379.864 550.06 379.64L550.62 380.616ZM559.179 369.784C559.915 369.784 560.545 369.891 561.067 370.104C561.59 370.307 562.097 370.627 562.587 371.064L561.755 371.992C561.339 371.661 560.929 371.421 560.523 371.272C560.129 371.112 559.702 371.032 559.243 371.032C558.667 371.032 558.193 371.165 557.819 371.432C557.446 371.699 557.259 372.088 557.259 372.6C557.259 372.92 557.323 373.192 557.451 373.416C557.579 373.629 557.814 373.827 558.155 374.008C558.507 374.189 559.014 374.381 559.675 374.584C560.369 374.797 560.945 375.027 561.403 375.272C561.862 375.517 562.23 375.859 562.507 376.296C562.795 376.723 562.939 377.267 562.939 377.928C562.939 378.568 562.779 379.133 562.459 379.624C562.15 380.115 561.697 380.499 561.099 380.776C560.513 381.053 559.814 381.192 559.003 381.192C557.478 381.192 556.23 380.717 555.259 379.768L556.091 378.84C556.539 379.203 556.993 379.48 557.451 379.672C557.91 379.853 558.422 379.944 558.987 379.944C559.67 379.944 560.235 379.779 560.683 379.448C561.131 379.107 561.355 378.616 561.355 377.976C561.355 377.613 561.286 377.315 561.147 377.08C561.009 376.835 560.769 376.616 560.427 376.424C560.097 376.232 559.611 376.04 558.971 375.848C557.841 375.507 557.014 375.096 556.491 374.616C555.969 374.136 555.707 373.485 555.707 372.664C555.707 372.109 555.851 371.613 556.139 371.176C556.438 370.739 556.849 370.397 557.371 370.152C557.905 369.907 558.507 369.784 559.179 369.784ZM569.066 372.376C569.834 372.376 570.431 372.605 570.858 373.064C571.295 373.523 571.514 374.152 571.514 374.952V381H570.042V375.16C570.042 374.563 569.925 374.141 569.69 373.896C569.466 373.651 569.135 373.528 568.698 373.528C568.261 373.528 567.871 373.656 567.53 373.912C567.189 374.168 566.869 374.531 566.57 375V381H565.098V369.192L566.57 369.032V373.736C567.231 372.829 568.063 372.376 569.066 372.376ZM577.641 372.376C578.825 372.376 579.742 372.771 580.393 373.56C581.054 374.349 581.385 375.421 581.385 376.776C581.385 377.651 581.236 378.424 580.937 379.096C580.638 379.757 580.206 380.275 579.641 380.648C579.076 381.011 578.404 381.192 577.625 381.192C576.441 381.192 575.518 380.797 574.857 380.008C574.196 379.219 573.865 378.147 573.865 376.792C573.865 375.917 574.014 375.149 574.313 374.488C574.612 373.816 575.044 373.299 575.609 372.936C576.174 372.563 576.852 372.376 577.641 372.376ZM577.641 373.56C576.18 373.56 575.449 374.637 575.449 376.792C575.449 378.936 576.174 380.008 577.625 380.008C579.076 380.008 579.801 378.931 579.801 376.776C579.801 374.632 579.081 373.56 577.641 373.56ZM587.481 372.376C587.78 372.376 588.057 372.408 588.313 372.472L588.041 373.912C587.785 373.848 587.54 373.816 587.305 373.816C586.782 373.816 586.361 374.008 586.041 374.392C585.721 374.776 585.47 375.373 585.289 376.184V381H583.817V372.568H585.081L585.225 374.28C585.449 373.651 585.753 373.176 586.137 372.856C586.521 372.536 586.969 372.376 587.481 372.376ZM595.872 376.536C595.872 376.781 595.862 377.032 595.84 377.288H590.464C590.528 378.216 590.763 378.899 591.168 379.336C591.574 379.773 592.096 379.992 592.736 379.992C593.142 379.992 593.515 379.933 593.856 379.816C594.198 379.699 594.555 379.512 594.928 379.256L595.568 380.136C594.672 380.84 593.691 381.192 592.624 381.192C591.451 381.192 590.534 380.808 589.872 380.04C589.222 379.272 588.896 378.216 588.896 376.872C588.896 375.997 589.035 375.224 589.312 374.552C589.6 373.869 590.006 373.336 590.528 372.952C591.062 372.568 591.686 372.376 592.4 372.376C593.52 372.376 594.379 372.744 594.976 373.48C595.574 374.216 595.872 375.235 595.872 376.536ZM594.416 376.104C594.416 375.272 594.251 374.637 593.92 374.2C593.59 373.763 593.094 373.544 592.432 373.544C591.227 373.544 590.571 374.429 590.464 376.2H594.416V376.104ZM604.41 368.184V382.568H604.058V368.184H604.41ZM623.237 381H621.765L621.381 376.024C621.221 374.072 621.131 372.573 621.109 371.528L618.725 379.752H617.301L614.789 371.512C614.789 372.845 614.72 374.387 614.581 376.136L614.213 381H612.773L613.685 369.976H615.733L618.053 377.992L620.261 369.976H622.325L623.237 381ZM631.434 379.032C631.434 379.373 631.493 379.629 631.61 379.8C631.728 379.96 631.904 380.083 632.138 380.168L631.802 381.192C631.365 381.139 631.013 381.016 630.746 380.824C630.48 380.632 630.282 380.333 630.154 379.928C629.589 380.771 628.752 381.192 627.642 381.192C626.81 381.192 626.154 380.957 625.674 380.488C625.194 380.019 624.954 379.405 624.954 378.648C624.954 377.752 625.274 377.064 625.914 376.584C626.565 376.104 627.482 375.864 628.666 375.864H629.962V375.24C629.962 374.643 629.818 374.216 629.53 373.96C629.242 373.704 628.8 373.576 628.202 373.576C627.584 373.576 626.826 373.725 625.93 374.024L625.562 372.952C626.608 372.568 627.578 372.376 628.474 372.376C629.466 372.376 630.208 372.621 630.698 373.112C631.189 373.592 631.434 374.28 631.434 375.176V379.032ZM627.978 380.088C628.821 380.088 629.482 379.651 629.962 378.776V376.84H628.858C627.301 376.84 626.522 377.416 626.522 378.568C626.522 379.069 626.645 379.448 626.89 379.704C627.136 379.96 627.498 380.088 627.978 380.088ZM635.981 381.192C635.437 381.192 635.005 381.032 634.685 380.712C634.376 380.381 634.221 379.923 634.221 379.336V369.176L635.693 369V379.304C635.693 379.539 635.731 379.709 635.805 379.816C635.891 379.923 636.029 379.976 636.221 379.976C636.424 379.976 636.605 379.944 636.765 379.88L637.149 380.904C636.797 381.096 636.408 381.192 635.981 381.192ZM640.461 372.568V381H638.989V372.568H640.461ZM639.709 368.52C640.018 368.52 640.269 368.616 640.461 368.808C640.653 369 640.749 369.24 640.749 369.528C640.749 369.816 640.653 370.056 640.461 370.248C640.269 370.429 640.018 370.52 639.709 370.52C639.41 370.52 639.165 370.429 638.973 370.248C638.781 370.056 638.685 369.816 638.685 369.528C638.685 369.24 638.781 369 638.973 368.808C639.165 368.616 639.41 368.52 639.709 368.52ZM647.36 372.376C648.32 372.376 649.083 372.765 649.648 373.544C650.214 374.312 650.496 375.389 650.496 376.776C650.496 377.651 650.363 378.424 650.096 379.096C649.83 379.757 649.446 380.275 648.944 380.648C648.443 381.011 647.856 381.192 647.184 381.192C646.299 381.192 645.552 380.819 644.944 380.072L644.8 381H643.504V369.176L644.976 369V373.624C645.584 372.792 646.379 372.376 647.36 372.376ZM646.832 380.024C647.483 380.024 647.99 379.763 648.352 379.24C648.726 378.707 648.912 377.885 648.912 376.776C648.912 375.635 648.742 374.813 648.4 374.312C648.059 373.8 647.574 373.544 646.944 373.544C646.198 373.544 645.542 373.981 644.976 374.856V378.888C645.2 379.24 645.472 379.517 645.792 379.72C646.123 379.923 646.47 380.024 646.832 380.024ZM659.276 381H658.012L657.9 379.688C657.58 380.211 657.212 380.595 656.796 380.84C656.38 381.075 655.874 381.192 655.276 381.192C654.54 381.192 653.964 380.968 653.548 380.52C653.132 380.072 652.924 379.437 652.924 378.616V372.568H654.396V378.456C654.396 379.032 654.498 379.443 654.7 379.688C654.903 379.923 655.234 380.04 655.692 380.04C656.514 380.04 657.218 379.555 657.804 378.584V372.568H659.276V381ZM662.701 378.968C663.021 378.968 663.288 379.075 663.501 379.288C663.714 379.501 663.821 379.763 663.821 380.072C663.821 380.403 663.725 380.781 663.533 381.208L662.461 383.656H661.405L662.045 381C661.906 380.893 661.794 380.76 661.709 380.6C661.634 380.44 661.597 380.264 661.597 380.072C661.597 379.763 661.704 379.501 661.917 379.288C662.13 379.075 662.392 378.968 662.701 378.968ZM674.331 369.784C674.992 369.784 675.547 369.869 675.995 370.04C676.454 370.211 676.918 370.488 677.387 370.872L676.555 371.848C675.883 371.304 675.174 371.032 674.427 371.032C673.51 371.032 672.768 371.384 672.203 372.088C671.648 372.792 671.371 373.923 671.371 375.48C671.371 376.995 671.648 378.115 672.203 378.84C672.758 379.555 673.494 379.912 674.411 379.912C674.88 379.912 675.291 379.832 675.643 379.672C675.995 379.512 676.368 379.288 676.763 379L677.515 379.96C677.174 380.312 676.736 380.605 676.203 380.84C675.67 381.075 675.056 381.192 674.363 381.192C673.467 381.192 672.667 380.973 671.963 380.536C671.27 380.088 670.726 379.437 670.331 378.584C669.947 377.72 669.755 376.685 669.755 375.48C669.755 374.275 669.958 373.245 670.363 372.392C670.768 371.528 671.318 370.877 672.011 370.44C672.704 370.003 673.478 369.784 674.331 369.784ZM685.3 381L684.468 378.232H680.292L679.46 381H677.924L681.46 369.976H683.38L686.9 381H685.3ZM680.66 377H684.1L682.388 371.24L680.66 377Z" fill="white"/>
<path d="M598.378 70.7839C599.039 70.7839 599.594 70.8693 600.042 71.0399C600.501 71.2106 600.965 71.4879 601.434 71.8719L600.602 72.8479C599.93 72.3039 599.221 72.0319 598.474 72.0319C597.557 72.0319 596.815 72.3839 596.25 73.0879C595.695 73.7919 595.418 74.9226 595.418 76.4799C595.418 77.9946 595.695 79.1146 596.25 79.8399C596.805 80.5546 597.541 80.9119 598.458 80.9119C598.927 80.9119 599.338 80.8319 599.69 80.6719C600.042 80.5119 600.415 80.2879 600.81 79.9999L601.562 80.9599C601.221 81.3119 600.783 81.6053 600.25 81.8399C599.717 82.0746 599.103 82.1919 598.41 82.1919C597.514 82.1919 596.714 81.9733 596.01 81.5359C595.317 81.0879 594.773 80.4373 594.378 79.5839C593.994 78.7199 593.802 77.6853 593.802 76.4799C593.802 75.2746 594.005 74.2453 594.41 73.3919C594.815 72.5279 595.365 71.8773 596.058 71.4399C596.751 71.0026 597.525 70.7839 598.378 70.7839ZM609.401 81.9999H608.137L608.025 80.6879C607.705 81.2106 607.337 81.5946 606.921 81.8399C606.505 82.0746 605.999 82.1919 605.401 82.1919C604.665 82.1919 604.089 81.9679 603.673 81.5199C603.257 81.0719 603.049 80.4373 603.049 79.6159V73.5679H604.521V79.4559C604.521 80.0319 604.623 80.4426 604.825 80.6879C605.028 80.9226 605.359 81.0399 605.817 81.0399C606.639 81.0399 607.343 80.5546 607.929 79.5839V73.5679H609.401V81.9999ZM616.106 73.3759C616.405 73.3759 616.682 73.4079 616.938 73.4719L616.666 74.9119C616.41 74.8479 616.165 74.8159 615.93 74.8159C615.407 74.8159 614.986 75.0079 614.666 75.3919C614.346 75.7759 614.095 76.3733 613.914 77.1839V81.9999H612.442V73.5679H613.706L613.85 75.2799C614.074 74.6506 614.378 74.1759 614.762 73.8559C615.146 73.5359 615.594 73.3759 616.106 73.3759ZM622.278 73.3759C622.576 73.3759 622.854 73.4079 623.11 73.4719L622.838 74.9119C622.582 74.8479 622.336 74.8159 622.102 74.8159C621.579 74.8159 621.158 75.0079 620.838 75.3919C620.518 75.7759 620.267 76.3733 620.086 77.1839V81.9999H618.614V73.5679H619.878L620.022 75.2799C620.246 74.6506 620.55 74.1759 620.934 73.8559C621.318 73.5359 621.766 73.3759 622.278 73.3759ZM630.669 77.5359C630.669 77.7813 630.659 78.0319 630.637 78.2879H625.261C625.325 79.2159 625.56 79.8986 625.965 80.3359C626.371 80.7733 626.893 80.9919 627.533 80.9919C627.939 80.9919 628.312 80.9333 628.653 80.8159C628.995 80.6986 629.352 80.5119 629.725 80.2559L630.365 81.1359C629.469 81.8399 628.488 82.1919 627.421 82.1919C626.248 82.1919 625.331 81.8079 624.669 81.0399C624.019 80.2719 623.693 79.2159 623.693 77.8719C623.693 76.9973 623.832 76.2239 624.109 75.5519C624.397 74.8693 624.803 74.3359 625.325 73.9519C625.859 73.5679 626.483 73.3759 627.197 73.3759C628.317 73.3759 629.176 73.7439 629.773 74.4799C630.371 75.2159 630.669 76.2346 630.669 77.5359ZM629.213 77.1039C629.213 76.2719 629.048 75.6373 628.717 75.1999C628.387 74.7626 627.891 74.5439 627.229 74.5439C626.024 74.5439 625.368 75.4293 625.261 77.1999H629.213V77.1039ZM636.988 73.3759C637.756 73.3759 638.353 73.6053 638.78 74.0639C639.217 74.5226 639.436 75.1519 639.436 75.9519V81.9999H637.964V76.1599C637.964 75.5626 637.852 75.1413 637.628 74.8959C637.404 74.6506 637.073 74.5279 636.636 74.5279C636.188 74.5279 635.793 74.6559 635.452 74.9119C635.111 75.1679 634.791 75.5359 634.492 76.0159V81.9999H633.02V73.5679H634.284L634.412 74.8159C634.711 74.3679 635.079 74.0159 635.516 73.7599C635.964 73.5039 636.455 73.3759 636.988 73.3759ZM646.651 81.6159C646.096 81.9999 645.467 82.1919 644.763 82.1919C644.048 82.1919 643.488 81.9893 643.083 81.5839C642.688 81.1679 642.491 80.5706 642.491 79.7919V74.7039H641.019V73.5679H642.491V71.6639L643.963 71.4879V73.5679H645.963L645.803 74.7039H643.963V79.7279C643.963 80.1653 644.038 80.4853 644.187 80.6879C644.347 80.8799 644.608 80.9759 644.971 80.9759C645.302 80.9759 645.675 80.8639 646.091 80.6399L646.651 81.6159ZM654.011 70.9759V80.6719H658.539L658.363 81.9999H652.491V70.9759H654.011ZM663.141 73.3759C664.325 73.3759 665.242 73.7706 665.893 74.5599C666.554 75.3493 666.885 76.4213 666.885 77.7759C666.885 78.6506 666.736 79.4239 666.437 80.0959C666.138 80.7573 665.706 81.2746 665.141 81.6479C664.576 82.0106 663.904 82.1919 663.125 82.1919C661.941 82.1919 661.018 81.7973 660.357 81.0079C659.696 80.2186 659.365 79.1466 659.365 77.7919C659.365 76.9173 659.514 76.1493 659.813 75.4879C660.112 74.8159 660.544 74.2986 661.109 73.9359C661.674 73.5626 662.352 73.3759 663.141 73.3759ZM663.141 74.5599C661.68 74.5599 660.949 75.6373 660.949 77.7919C660.949 79.9359 661.674 81.0079 663.125 81.0079C664.576 81.0079 665.301 79.9306 665.301 77.7759C665.301 75.6319 664.581 74.5599 663.141 74.5599ZM672.389 73.3759C672.89 73.3759 673.349 73.4506 673.765 73.5999C674.181 73.7386 674.581 73.9679 674.965 74.2879L674.261 75.2159C673.962 75.0026 673.669 74.8479 673.381 74.7519C673.104 74.6453 672.794 74.5919 672.453 74.5919C671.77 74.5919 671.237 74.8639 670.853 75.4079C670.48 75.9519 670.293 76.7573 670.293 77.8239C670.293 78.8906 670.48 79.6799 670.853 80.1919C671.226 80.6933 671.76 80.9439 672.453 80.9439C672.784 80.9439 673.088 80.8959 673.365 80.7999C673.642 80.6933 673.952 80.5279 674.293 80.3039L674.965 81.2639C674.197 81.8826 673.338 82.1919 672.389 82.1919C671.248 82.1919 670.346 81.8079 669.685 81.0399C669.034 80.2719 668.709 79.2106 668.709 77.8559C668.709 76.9599 668.858 76.1759 669.157 75.5039C669.456 74.8319 669.877 74.3093 670.421 73.9359C670.976 73.5626 671.632 73.3759 672.389 73.3759ZM682.481 80.0319C682.481 80.3733 682.54 80.6293 682.657 80.7999C682.775 80.9599 682.951 81.0826 683.185 81.1679L682.849 82.1919C682.412 82.1386 682.06 82.0159 681.793 81.8239C681.527 81.6319 681.329 81.3333 681.201 80.9279C680.636 81.7706 679.799 82.1919 678.689 82.1919C677.857 82.1919 677.201 81.9573 676.721 81.4879C676.241 81.0186 676.001 80.4053 676.001 79.6479C676.001 78.7519 676.321 78.0639 676.961 77.5839C677.612 77.1039 678.529 76.8639 679.713 76.8639H681.009V76.2399C681.009 75.6426 680.865 75.2159 680.577 74.9599C680.289 74.7039 679.847 74.5759 679.249 74.5759C678.631 74.5759 677.873 74.7253 676.977 75.0239L676.609 73.9519C677.655 73.5679 678.625 73.3759 679.521 73.3759C680.513 73.3759 681.255 73.6213 681.745 74.1119C682.236 74.5919 682.481 75.2799 682.481 76.1759V80.0319ZM679.025 81.0879C679.868 81.0879 680.529 80.6506 681.009 79.7759V77.8399H679.905C678.348 77.8399 677.569 78.4159 677.569 79.5679C677.569 80.0693 677.692 80.4479 677.937 80.7039C678.183 80.9599 678.545 81.0879 679.025 81.0879ZM689.76 81.6159C689.206 81.9999 688.576 82.1919 687.872 82.1919C687.158 82.1919 686.598 81.9893 686.192 81.5839C685.798 81.1679 685.6 80.5706 685.6 79.7919V74.7039H684.128V73.5679H685.6V71.6639L687.072 71.4879V73.5679H689.072L688.912 74.7039H687.072V79.7279C687.072 80.1653 687.147 80.4853 687.296 80.6879C687.456 80.8799 687.718 80.9759 688.08 80.9759C688.411 80.9759 688.784 80.8639 689.2 80.6399L689.76 81.6159ZM692.758 73.5679V81.9999H691.286V73.5679H692.758ZM692.006 69.5199C692.315 69.5199 692.566 69.6159 692.758 69.8079C692.95 69.9999 693.046 70.2399 693.046 70.5279C693.046 70.8159 692.95 71.0559 692.758 71.2479C692.566 71.4293 692.315 71.5199 692.006 71.5199C691.707 71.5199 691.462 71.4293 691.27 71.2479C691.078 71.0559 690.982 70.8159 690.982 70.5279C690.982 70.2399 691.078 69.9999 691.27 69.8079C691.462 69.6159 691.707 69.5199 692.006 69.5199ZM698.969 73.3759C700.153 73.3759 701.071 73.7706 701.721 74.5599C702.383 75.3493 702.713 76.4213 702.713 77.7759C702.713 78.6506 702.564 79.4239 702.265 80.0959C701.967 80.7573 701.535 81.2746 700.969 81.6479C700.404 82.0106 699.732 82.1919 698.953 82.1919C697.769 82.1919 696.847 81.7973 696.185 81.0079C695.524 80.2186 695.193 79.1466 695.193 77.7919C695.193 76.9173 695.343 76.1493 695.641 75.4879C695.94 74.8159 696.372 74.2986 696.937 73.9359C697.503 73.5626 698.18 73.3759 698.969 73.3759ZM698.969 74.5599C697.508 74.5599 696.777 75.6373 696.777 77.7919C696.777 79.9359 697.503 81.0079 698.953 81.0079C700.404 81.0079 701.129 79.9306 701.129 77.7759C701.129 75.6319 700.409 74.5599 698.969 74.5599ZM709.113 73.3759C709.881 73.3759 710.478 73.6053 710.905 74.0639C711.342 74.5226 711.561 75.1519 711.561 75.9519V81.9999H710.089V76.1599C710.089 75.5626 709.977 75.1413 709.753 74.8959C709.529 74.6506 709.198 74.5279 708.761 74.5279C708.313 74.5279 707.918 74.6559 707.577 74.9119C707.236 75.1679 706.916 75.5359 706.617 76.0159V81.9999H705.145V73.5679H706.409L706.537 74.8159C706.836 74.3679 707.204 74.0159 707.641 73.7599C708.089 73.5039 708.58 73.3759 709.113 73.3759Z" fill="white"/>
</svg>
