<svg width="1003" height="491" viewBox="0 0 1003 491" fill="none" xmlns="http://www.w3.org/2000/svg">
<g opacity="0.29827">
<path d="M1008.08 158.448L443.182 -361.858V-752.19L28.1096 -775C24.9043 -767.456 4.36709 -745.715 7.57176 -733.596C11.43 -719.102 30.8387 -723.735 36.4776 -714.409C43.0661 -703.42 31.7291 -658.749 28.3457 -645.86C21.8759 -621.445 7.09676 -601.665 2.82235 -577.25C-4.35982 -536.263 10.1824 -539.53 37.7242 -513.927C84.141 -470.742 46.9244 -425.952 58.6176 -375.223C68.1146 -333.878 109.605 -312.554 124.8 -271.211C136.553 -239.37 152.697 -231.233 177.746 -207.947C177.153 -222.084 164.51 -263.785 188.253 -260.102C211.817 -256.478 202.736 -221.669 207.247 -207.115C211.045 -194.997 237.933 -170.761 215.616 -159.593C208.196 -155.91 187.066 -170.583 178.577 -174.503C184.572 -155.791 180.774 -136.367 190.271 -118.487C201.608 -97.1621 213.835 -105.359 228.853 -93.7755C244.344 -81.8356 242.683 -68.1137 235.797 -50.0555C228.615 -31.2247 221.196 -34.1353 232.592 -11.4435C240.843 4.95113 254.85 25.742 266.9 38.2163C273.904 45.4633 281.502 47.1267 288.506 56.3932C294.323 64.1154 292.067 74.2142 299.012 81.1638C310.883 93.1036 331.006 93.2819 340.384 108.904C350.831 126.309 338.96 139.437 369.706 137.832C371.309 172.643 377.897 204.185 377.541 238.994C394.695 245.825 422.414 237.687 440.399 234.063C458.266 258.18 481.355 241.429 501.774 254.558C510.678 260.26 508.837 274.517 514.239 279.506C525.339 289.723 533.529 283.308 547.301 286.872C557.51 289.486 565.404 296.97 575.138 299.703C584.338 302.257 599.475 296.258 606.301 304.396C614.492 314.138 600.78 331.958 613.127 339.799C623.395 346.333 638.115 330.77 648.088 333.027C659.721 335.7 693.079 366.174 701.271 376.212C710.59 387.677 719.969 409.062 725.25 423.793C733.501 446.841 732.373 458.127 749.408 474.998C760.27 485.75 749.942 486.522 767.63 489.67C779.204 491.749 794.518 483.373 806.212 482.067C830.549 479.394 855.122 484.027 879.102 479.453C901.421 475.176 922.729 468.166 945.64 464.899C965.465 462.048 1000.37 464.246 1017.94 454.801C1036.99 444.643 1038.71 421.654 1011.17 425.932C1008.97 411.26 1018.77 391.003 1007.85 380.846C1023.04 360.056 1028.56 345.384 1030.93 319.959C1032 308.792 1032.48 296.436 1038 287.05C1043.4 277.783 1058.59 272.259 1061.56 264.299C1066.13 251.943 1058.83 246.419 1053.25 239.528C1049.69 235.073 1039.54 237.212 1036.63 233.291C1031.23 226.103 1036.57 218.678 1033.6 211.431C1024.94 190.462 1014.61 182.205 1008.08 158.444C1008.26 162.424 1008.44 166.463 1008.2 170.384" stroke="white" stroke-width="2" stroke-linecap="round" stroke-linejoin="round"/>
</g>
<path d="M725 83.9999C716.515 85.6478 700.747 86.194 695.841 95.2765C693.448 99.7054 693.117 107.439 696.072 111.609C701.78 119.662 704.363 128.969 702.246 138.877C699.908 149.826 689.009 151.624 679.203 151.886C657.608 152.463 636.005 146.586 615.783 139.843C598.653 134.131 582.339 126.559 565.348 120.528C553.191 116.213 539.99 116.088 527.348 113.938C516.208 112.043 504.87 110.586 493.551 110.586C486.81 110.586 479.978 110.196 473.406 111.95C464.845 114.234 455.889 117.683 448.13 121.891C433.26 129.958 425.925 145.971 432.362 161.743C434.796 167.704 437.271 173.526 437.957 179.978C438.444 184.569 439.02 189.658 436.246 193.698C431.026 201.3 419.457 205.034 410.913 207.445C399.757 210.594 388.127 212.242 377.116 215.91C373.622 217.073 369.819 217.833 366.42 219.205C365.728 219.484 365.312 219.389 365 220" stroke="white" stroke-width="2" stroke-linecap="round" stroke-linejoin="round"/>
<path fill-rule="evenodd" clip-rule="evenodd" d="M361.5 229C365.09 229 368 226.09 368 222.5C368 218.91 365.09 216 361.5 216C357.91 216 355 218.91 355 222.5C355 226.09 357.91 229 361.5 229Z" fill="#4AF6CD"/>
<path fill-rule="evenodd" clip-rule="evenodd" d="M661 358C662.657 358 664 356.657 664 355C664 353.343 662.657 352 661 352C659.343 352 658 353.343 658 355C658 356.657 659.343 358 661 358Z" fill="#4AF6CD"/>
<path fill-rule="evenodd" clip-rule="evenodd" d="M725 466C726.657 466 728 464.657 728 463C728 461.343 726.657 460 725 460C723.343 460 722 461.343 722 463C722 464.657 723.343 466 725 466Z" fill="#4AF6CD"/>
<path fill-rule="evenodd" clip-rule="evenodd" d="M578 322C579.657 322 581 320.657 581 319C581 317.343 579.657 316 578 316C576.343 316 575 317.343 575 319C575 320.657 576.343 322 578 322Z" fill="#4AF6CD"/>
<path fill-rule="evenodd" clip-rule="evenodd" d="M729.5 85.9999C733.09 85.9999 736 83.0898 736 79.4999C736 75.9101 733.09 72.9999 729.5 72.9999C725.91 72.9999 723 75.9101 723 79.4999C723 83.0898 725.91 85.9999 729.5 85.9999Z" fill="#4AF6CD"/>
<path d="M196.359 250H194.327L189.847 240.64C189.911 241.376 189.959 242.059 189.991 242.688C190.034 243.307 190.055 244.059 190.055 244.944V250H188.631V238.976H190.615L195.143 248.352C195.111 248.075 195.069 247.589 195.015 246.896C194.962 246.203 194.935 245.568 194.935 244.992V238.976H196.359V250ZM202.641 241.376C203.825 241.376 204.742 241.771 205.393 242.56C206.054 243.349 206.385 244.421 206.385 245.776C206.385 246.651 206.236 247.424 205.937 248.096C205.638 248.757 205.206 249.275 204.641 249.648C204.076 250.011 203.404 250.192 202.625 250.192C201.441 250.192 200.518 249.797 199.857 249.008C199.196 248.219 198.865 247.147 198.865 245.792C198.865 244.917 199.014 244.149 199.313 243.488C199.612 242.816 200.044 242.299 200.609 241.936C201.174 241.563 201.852 241.376 202.641 241.376ZM202.641 242.56C201.18 242.56 200.449 243.637 200.449 245.792C200.449 247.936 201.174 249.008 202.625 249.008C204.076 249.008 204.801 247.931 204.801 245.776C204.801 243.632 204.081 242.56 202.641 242.56ZM212.481 241.376C212.78 241.376 213.057 241.408 213.313 241.472L213.041 242.912C212.785 242.848 212.54 242.816 212.305 242.816C211.782 242.816 211.361 243.008 211.041 243.392C210.721 243.776 210.47 244.373 210.289 245.184V250H208.817V241.568H210.081L210.225 243.28C210.449 242.651 210.753 242.176 211.137 241.856C211.521 241.536 211.969 241.376 212.481 241.376ZM219.245 249.616C218.69 250 218.061 250.192 217.357 250.192C216.642 250.192 216.082 249.989 215.677 249.584C215.282 249.168 215.085 248.571 215.085 247.792V242.704H213.613V241.568H215.085V239.664L216.557 239.488V241.568H218.557L218.397 242.704H216.557V247.728C216.557 248.165 216.631 248.485 216.781 248.688C216.941 248.88 217.202 248.976 217.565 248.976C217.895 248.976 218.269 248.864 218.685 248.64L219.245 249.616ZM224.738 241.376C225.506 241.376 226.103 241.605 226.53 242.064C226.967 242.523 227.186 243.152 227.186 243.952V250H225.714V244.16C225.714 243.563 225.597 243.141 225.362 242.896C225.138 242.651 224.807 242.528 224.37 242.528C223.933 242.528 223.543 242.656 223.202 242.912C222.861 243.168 222.541 243.531 222.242 244V250H220.77V238.192L222.242 238.032V242.736C222.903 241.829 223.735 241.376 224.738 241.376ZM237.179 238.784C237.915 238.784 238.545 238.891 239.067 239.104C239.59 239.307 240.097 239.627 240.587 240.064L239.755 240.992C239.339 240.661 238.929 240.421 238.523 240.272C238.129 240.112 237.702 240.032 237.243 240.032C236.667 240.032 236.193 240.165 235.819 240.432C235.446 240.699 235.259 241.088 235.259 241.6C235.259 241.92 235.323 242.192 235.451 242.416C235.579 242.629 235.814 242.827 236.155 243.008C236.507 243.189 237.014 243.381 237.675 243.584C238.369 243.797 238.945 244.027 239.403 244.272C239.862 244.517 240.23 244.859 240.507 245.296C240.795 245.723 240.939 246.267 240.939 246.928C240.939 247.568 240.779 248.133 240.459 248.624C240.15 249.115 239.697 249.499 239.099 249.776C238.513 250.053 237.814 250.192 237.003 250.192C235.478 250.192 234.23 249.717 233.259 248.768L234.091 247.84C234.539 248.203 234.993 248.48 235.451 248.672C235.91 248.853 236.422 248.944 236.987 248.944C237.67 248.944 238.235 248.779 238.683 248.448C239.131 248.107 239.355 247.616 239.355 246.976C239.355 246.613 239.286 246.315 239.147 246.08C239.009 245.835 238.769 245.616 238.427 245.424C238.097 245.232 237.611 245.04 236.971 244.848C235.841 244.507 235.014 244.096 234.491 243.616C233.969 243.136 233.707 242.485 233.707 241.664C233.707 241.109 233.851 240.613 234.139 240.176C234.438 239.739 234.849 239.397 235.371 239.152C235.905 238.907 236.507 238.784 237.179 238.784ZM247.066 241.376C247.834 241.376 248.431 241.605 248.858 242.064C249.295 242.523 249.514 243.152 249.514 243.952V250H248.042V244.16C248.042 243.563 247.925 243.141 247.69 242.896C247.466 242.651 247.135 242.528 246.698 242.528C246.261 242.528 245.871 242.656 245.53 242.912C245.189 243.168 244.869 243.531 244.57 244V250H243.098V238.192L244.57 238.032V242.736C245.231 241.829 246.063 241.376 247.066 241.376ZM255.641 241.376C256.825 241.376 257.742 241.771 258.393 242.56C259.054 243.349 259.385 244.421 259.385 245.776C259.385 246.651 259.236 247.424 258.937 248.096C258.638 248.757 258.206 249.275 257.641 249.648C257.076 250.011 256.404 250.192 255.625 250.192C254.441 250.192 253.518 249.797 252.857 249.008C252.196 248.219 251.865 247.147 251.865 245.792C251.865 244.917 252.014 244.149 252.313 243.488C252.612 242.816 253.044 242.299 253.609 241.936C254.174 241.563 254.852 241.376 255.641 241.376ZM255.641 242.56C254.18 242.56 253.449 243.637 253.449 245.792C253.449 247.936 254.174 249.008 255.625 249.008C257.076 249.008 257.801 247.931 257.801 245.776C257.801 243.632 257.081 242.56 255.641 242.56ZM265.481 241.376C265.78 241.376 266.057 241.408 266.313 241.472L266.041 242.912C265.785 242.848 265.54 242.816 265.305 242.816C264.782 242.816 264.361 243.008 264.041 243.392C263.721 243.776 263.47 244.373 263.289 245.184V250H261.817V241.568H263.081L263.225 243.28C263.449 242.651 263.753 242.176 264.137 241.856C264.521 241.536 264.969 241.376 265.481 241.376ZM273.872 245.536C273.872 245.781 273.862 246.032 273.84 246.288H268.464C268.528 247.216 268.763 247.899 269.168 248.336C269.574 248.773 270.096 248.992 270.736 248.992C271.142 248.992 271.515 248.933 271.856 248.816C272.198 248.699 272.555 248.512 272.928 248.256L273.568 249.136C272.672 249.84 271.691 250.192 270.624 250.192C269.451 250.192 268.534 249.808 267.872 249.04C267.222 248.272 266.896 247.216 266.896 245.872C266.896 244.997 267.035 244.224 267.312 243.552C267.6 242.869 268.006 242.336 268.528 241.952C269.062 241.568 269.686 241.376 270.4 241.376C271.52 241.376 272.379 241.744 272.976 242.48C273.574 243.216 273.872 244.235 273.872 245.536ZM272.416 245.104C272.416 244.272 272.251 243.637 271.92 243.2C271.59 242.763 271.094 242.544 270.432 242.544C269.227 242.544 268.571 243.429 268.464 245.2H272.416V245.104ZM282.41 237.184V251.568H282.058V237.184H282.41ZM301.237 250H299.765L299.381 245.024C299.221 243.072 299.131 241.573 299.109 240.528L296.725 248.752H295.301L292.789 240.512C292.789 241.845 292.72 243.387 292.581 245.136L292.213 250H290.773L291.685 238.976H293.733L296.053 246.992L298.261 238.976H300.325L301.237 250ZM309.434 248.032C309.434 248.373 309.493 248.629 309.61 248.8C309.728 248.96 309.904 249.083 310.138 249.168L309.802 250.192C309.365 250.139 309.013 250.016 308.746 249.824C308.48 249.632 308.282 249.333 308.154 248.928C307.589 249.771 306.752 250.192 305.642 250.192C304.81 250.192 304.154 249.957 303.674 249.488C303.194 249.019 302.954 248.405 302.954 247.648C302.954 246.752 303.274 246.064 303.914 245.584C304.565 245.104 305.482 244.864 306.666 244.864H307.962V244.24C307.962 243.643 307.818 243.216 307.53 242.96C307.242 242.704 306.8 242.576 306.202 242.576C305.584 242.576 304.826 242.725 303.93 243.024L303.562 241.952C304.608 241.568 305.578 241.376 306.474 241.376C307.466 241.376 308.208 241.621 308.698 242.112C309.189 242.592 309.434 243.28 309.434 244.176V248.032ZM305.978 249.088C306.821 249.088 307.482 248.651 307.962 247.776V245.84H306.858C305.301 245.84 304.522 246.416 304.522 247.568C304.522 248.069 304.645 248.448 304.89 248.704C305.136 248.96 305.498 249.088 305.978 249.088ZM313.981 250.192C313.437 250.192 313.005 250.032 312.685 249.712C312.376 249.381 312.221 248.923 312.221 248.336V238.176L313.693 238V248.304C313.693 248.539 313.731 248.709 313.805 248.816C313.891 248.923 314.029 248.976 314.221 248.976C314.424 248.976 314.605 248.944 314.765 248.88L315.149 249.904C314.797 250.096 314.408 250.192 313.981 250.192ZM318.461 241.568V250H316.989V241.568H318.461ZM317.709 237.52C318.018 237.52 318.269 237.616 318.461 237.808C318.653 238 318.749 238.24 318.749 238.528C318.749 238.816 318.653 239.056 318.461 239.248C318.269 239.429 318.018 239.52 317.709 239.52C317.41 239.52 317.165 239.429 316.973 239.248C316.781 239.056 316.685 238.816 316.685 238.528C316.685 238.24 316.781 238 316.973 237.808C317.165 237.616 317.41 237.52 317.709 237.52ZM325.36 241.376C326.32 241.376 327.083 241.765 327.648 242.544C328.214 243.312 328.496 244.389 328.496 245.776C328.496 246.651 328.363 247.424 328.096 248.096C327.83 248.757 327.446 249.275 326.944 249.648C326.443 250.011 325.856 250.192 325.184 250.192C324.299 250.192 323.552 249.819 322.944 249.072L322.8 250H321.504V238.176L322.976 238V242.624C323.584 241.792 324.379 241.376 325.36 241.376ZM324.832 249.024C325.483 249.024 325.99 248.763 326.352 248.24C326.726 247.707 326.912 246.885 326.912 245.776C326.912 244.635 326.742 243.813 326.4 243.312C326.059 242.8 325.574 242.544 324.944 242.544C324.198 242.544 323.542 242.981 322.976 243.856V247.888C323.2 248.24 323.472 248.517 323.792 248.72C324.123 248.923 324.47 249.024 324.832 249.024ZM337.276 250H336.012L335.9 248.688C335.58 249.211 335.212 249.595 334.796 249.84C334.38 250.075 333.874 250.192 333.276 250.192C332.54 250.192 331.964 249.968 331.548 249.52C331.132 249.072 330.924 248.437 330.924 247.616V241.568H332.396V247.456C332.396 248.032 332.498 248.443 332.7 248.688C332.903 248.923 333.234 249.04 333.692 249.04C334.514 249.04 335.218 248.555 335.804 247.584V241.568H337.276V250ZM340.701 247.968C341.021 247.968 341.288 248.075 341.501 248.288C341.714 248.501 341.821 248.763 341.821 249.072C341.821 249.403 341.725 249.781 341.533 250.208L340.461 252.656H339.405L340.045 250C339.906 249.893 339.794 249.76 339.709 249.6C339.634 249.44 339.597 249.264 339.597 249.072C339.597 248.763 339.704 248.501 339.917 248.288C340.13 248.075 340.392 247.968 340.701 247.968ZM352.331 238.784C352.992 238.784 353.547 238.869 353.995 239.04C354.454 239.211 354.918 239.488 355.387 239.872L354.555 240.848C353.883 240.304 353.174 240.032 352.427 240.032C351.51 240.032 350.768 240.384 350.203 241.088C349.648 241.792 349.371 242.923 349.371 244.48C349.371 245.995 349.648 247.115 350.203 247.84C350.758 248.555 351.494 248.912 352.411 248.912C352.88 248.912 353.291 248.832 353.643 248.672C353.995 248.512 354.368 248.288 354.763 248L355.515 248.96C355.174 249.312 354.736 249.605 354.203 249.84C353.67 250.075 353.056 250.192 352.363 250.192C351.467 250.192 350.667 249.973 349.963 249.536C349.27 249.088 348.726 248.437 348.331 247.584C347.947 246.72 347.755 245.685 347.755 244.48C347.755 243.275 347.958 242.245 348.363 241.392C348.768 240.528 349.318 239.877 350.011 239.44C350.704 239.003 351.478 238.784 352.331 238.784ZM363.3 250L362.468 247.232H358.292L357.46 250H355.924L359.46 238.976H361.38L364.9 250H363.3ZM358.66 246H362.1L360.388 240.24L358.66 246Z" fill="white"/>
<path d="M598.378 70.7839C599.039 70.7839 599.594 70.8693 600.042 71.0399C600.501 71.2106 600.965 71.4879 601.434 71.8719L600.602 72.8479C599.93 72.3039 599.221 72.0319 598.474 72.0319C597.557 72.0319 596.815 72.3839 596.25 73.0879C595.695 73.7919 595.418 74.9226 595.418 76.4799C595.418 77.9946 595.695 79.1146 596.25 79.8399C596.805 80.5546 597.541 80.9119 598.458 80.9119C598.927 80.9119 599.338 80.8319 599.69 80.6719C600.042 80.5119 600.415 80.2879 600.81 79.9999L601.562 80.9599C601.221 81.3119 600.783 81.6053 600.25 81.8399C599.717 82.0746 599.103 82.1919 598.41 82.1919C597.514 82.1919 596.714 81.9733 596.01 81.5359C595.317 81.0879 594.773 80.4373 594.378 79.5839C593.994 78.7199 593.802 77.6853 593.802 76.4799C593.802 75.2746 594.005 74.2453 594.41 73.3919C594.815 72.5279 595.365 71.8773 596.058 71.4399C596.751 71.0026 597.525 70.7839 598.378 70.7839ZM609.401 81.9999H608.137L608.025 80.6879C607.705 81.2106 607.337 81.5946 606.921 81.8399C606.505 82.0746 605.999 82.1919 605.401 82.1919C604.665 82.1919 604.089 81.9679 603.673 81.5199C603.257 81.0719 603.049 80.4373 603.049 79.6159V73.5679H604.521V79.4559C604.521 80.0319 604.623 80.4426 604.825 80.6879C605.028 80.9226 605.359 81.0399 605.817 81.0399C606.639 81.0399 607.343 80.5546 607.929 79.5839V73.5679H609.401V81.9999ZM616.106 73.3759C616.405 73.3759 616.682 73.4079 616.938 73.4719L616.666 74.9119C616.41 74.8479 616.165 74.8159 615.93 74.8159C615.407 74.8159 614.986 75.0079 614.666 75.3919C614.346 75.7759 614.095 76.3733 613.914 77.1839V81.9999H612.442V73.5679H613.706L613.85 75.2799C614.074 74.6506 614.378 74.1759 614.762 73.8559C615.146 73.5359 615.594 73.3759 616.106 73.3759ZM622.278 73.3759C622.576 73.3759 622.854 73.4079 623.11 73.4719L622.838 74.9119C622.582 74.8479 622.336 74.8159 622.102 74.8159C621.579 74.8159 621.158 75.0079 620.838 75.3919C620.518 75.7759 620.267 76.3733 620.086 77.1839V81.9999H618.614V73.5679H619.878L620.022 75.2799C620.246 74.6506 620.55 74.1759 620.934 73.8559C621.318 73.5359 621.766 73.3759 622.278 73.3759ZM630.669 77.5359C630.669 77.7813 630.659 78.0319 630.637 78.2879H625.261C625.325 79.2159 625.56 79.8986 625.965 80.3359C626.371 80.7733 626.893 80.9919 627.533 80.9919C627.939 80.9919 628.312 80.9333 628.653 80.8159C628.995 80.6986 629.352 80.5119 629.725 80.2559L630.365 81.1359C629.469 81.8399 628.488 82.1919 627.421 82.1919C626.248 82.1919 625.331 81.8079 624.669 81.0399C624.019 80.2719 623.693 79.2159 623.693 77.8719C623.693 76.9973 623.832 76.2239 624.109 75.5519C624.397 74.8693 624.803 74.3359 625.325 73.9519C625.859 73.5679 626.483 73.3759 627.197 73.3759C628.317 73.3759 629.176 73.7439 629.773 74.4799C630.371 75.2159 630.669 76.2346 630.669 77.5359ZM629.213 77.1039C629.213 76.2719 629.048 75.6373 628.717 75.1999C628.387 74.7626 627.891 74.5439 627.229 74.5439C626.024 74.5439 625.368 75.4293 625.261 77.1999H629.213V77.1039ZM636.988 73.3759C637.756 73.3759 638.353 73.6053 638.78 74.0639C639.217 74.5226 639.436 75.1519 639.436 75.9519V81.9999H637.964V76.1599C637.964 75.5626 637.852 75.1413 637.628 74.8959C637.404 74.6506 637.073 74.5279 636.636 74.5279C636.188 74.5279 635.793 74.6559 635.452 74.9119C635.111 75.1679 634.791 75.5359 634.492 76.0159V81.9999H633.02V73.5679H634.284L634.412 74.8159C634.711 74.3679 635.079 74.0159 635.516 73.7599C635.964 73.5039 636.455 73.3759 636.988 73.3759ZM646.651 81.6159C646.096 81.9999 645.467 82.1919 644.763 82.1919C644.048 82.1919 643.488 81.9893 643.083 81.5839C642.688 81.1679 642.491 80.5706 642.491 79.7919V74.7039H641.019V73.5679H642.491V71.6639L643.963 71.4879V73.5679H645.963L645.803 74.7039H643.963V79.7279C643.963 80.1653 644.038 80.4853 644.187 80.6879C644.347 80.8799 644.608 80.9759 644.971 80.9759C645.302 80.9759 645.675 80.8639 646.091 80.6399L646.651 81.6159ZM654.011 70.9759V80.6719H658.539L658.363 81.9999H652.491V70.9759H654.011ZM663.141 73.3759C664.325 73.3759 665.242 73.7706 665.893 74.5599C666.554 75.3493 666.885 76.4213 666.885 77.7759C666.885 78.6506 666.736 79.4239 666.437 80.0959C666.138 80.7573 665.706 81.2746 665.141 81.6479C664.576 82.0106 663.904 82.1919 663.125 82.1919C661.941 82.1919 661.018 81.7973 660.357 81.0079C659.696 80.2186 659.365 79.1466 659.365 77.7919C659.365 76.9173 659.514 76.1493 659.813 75.4879C660.112 74.8159 660.544 74.2986 661.109 73.9359C661.674 73.5626 662.352 73.3759 663.141 73.3759ZM663.141 74.5599C661.68 74.5599 660.949 75.6373 660.949 77.7919C660.949 79.9359 661.674 81.0079 663.125 81.0079C664.576 81.0079 665.301 79.9306 665.301 77.7759C665.301 75.6319 664.581 74.5599 663.141 74.5599ZM672.389 73.3759C672.89 73.3759 673.349 73.4506 673.765 73.5999C674.181 73.7386 674.581 73.9679 674.965 74.2879L674.261 75.2159C673.962 75.0026 673.669 74.8479 673.381 74.7519C673.104 74.6453 672.794 74.5919 672.453 74.5919C671.77 74.5919 671.237 74.8639 670.853 75.4079C670.48 75.9519 670.293 76.7573 670.293 77.8239C670.293 78.8906 670.48 79.6799 670.853 80.1919C671.226 80.6933 671.76 80.9439 672.453 80.9439C672.784 80.9439 673.088 80.8959 673.365 80.7999C673.642 80.6933 673.952 80.5279 674.293 80.3039L674.965 81.2639C674.197 81.8826 673.338 82.1919 672.389 82.1919C671.248 82.1919 670.346 81.8079 669.685 81.0399C669.034 80.2719 668.709 79.2106 668.709 77.8559C668.709 76.9599 668.858 76.1759 669.157 75.5039C669.456 74.8319 669.877 74.3093 670.421 73.9359C670.976 73.5626 671.632 73.3759 672.389 73.3759ZM682.481 80.0319C682.481 80.3733 682.54 80.6293 682.657 80.7999C682.775 80.9599 682.951 81.0826 683.185 81.1679L682.849 82.1919C682.412 82.1386 682.06 82.0159 681.793 81.8239C681.527 81.6319 681.329 81.3333 681.201 80.9279C680.636 81.7706 679.799 82.1919 678.689 82.1919C677.857 82.1919 677.201 81.9573 676.721 81.4879C676.241 81.0186 676.001 80.4053 676.001 79.6479C676.001 78.7519 676.321 78.0639 676.961 77.5839C677.612 77.1039 678.529 76.8639 679.713 76.8639H681.009V76.2399C681.009 75.6426 680.865 75.2159 680.577 74.9599C680.289 74.7039 679.847 74.5759 679.249 74.5759C678.631 74.5759 677.873 74.7253 676.977 75.0239L676.609 73.9519C677.655 73.5679 678.625 73.3759 679.521 73.3759C680.513 73.3759 681.255 73.6213 681.745 74.1119C682.236 74.5919 682.481 75.2799 682.481 76.1759V80.0319ZM679.025 81.0879C679.868 81.0879 680.529 80.6506 681.009 79.7759V77.8399H679.905C678.348 77.8399 677.569 78.4159 677.569 79.5679C677.569 80.0693 677.692 80.4479 677.937 80.7039C678.183 80.9599 678.545 81.0879 679.025 81.0879ZM689.76 81.6159C689.206 81.9999 688.576 82.1919 687.872 82.1919C687.158 82.1919 686.598 81.9893 686.192 81.5839C685.798 81.1679 685.6 80.5706 685.6 79.7919V74.7039H684.128V73.5679H685.6V71.6639L687.072 71.4879V73.5679H689.072L688.912 74.7039H687.072V79.7279C687.072 80.1653 687.147 80.4853 687.296 80.6879C687.456 80.8799 687.718 80.9759 688.08 80.9759C688.411 80.9759 688.784 80.8639 689.2 80.6399L689.76 81.6159ZM692.758 73.5679V81.9999H691.286V73.5679H692.758ZM692.006 69.5199C692.315 69.5199 692.566 69.6159 692.758 69.8079C692.95 69.9999 693.046 70.2399 693.046 70.5279C693.046 70.8159 692.95 71.0559 692.758 71.2479C692.566 71.4293 692.315 71.5199 692.006 71.5199C691.707 71.5199 691.462 71.4293 691.27 71.2479C691.078 71.0559 690.982 70.8159 690.982 70.5279C690.982 70.2399 691.078 69.9999 691.27 69.8079C691.462 69.6159 691.707 69.5199 692.006 69.5199ZM698.969 73.3759C700.153 73.3759 701.071 73.7706 701.721 74.5599C702.383 75.3493 702.713 76.4213 702.713 77.7759C702.713 78.6506 702.564 79.4239 702.265 80.0959C701.967 80.7573 701.535 81.2746 700.969 81.6479C700.404 82.0106 699.732 82.1919 698.953 82.1919C697.769 82.1919 696.847 81.7973 696.185 81.0079C695.524 80.2186 695.193 79.1466 695.193 77.7919C695.193 76.9173 695.343 76.1493 695.641 75.4879C695.94 74.8159 696.372 74.2986 696.937 73.9359C697.503 73.5626 698.18 73.3759 698.969 73.3759ZM698.969 74.5599C697.508 74.5599 696.777 75.6373 696.777 77.7919C696.777 79.9359 697.503 81.0079 698.953 81.0079C700.404 81.0079 701.129 79.9306 701.129 77.7759C701.129 75.6319 700.409 74.5599 698.969 74.5599ZM709.113 73.3759C709.881 73.3759 710.478 73.6053 710.905 74.0639C711.342 74.5226 711.561 75.1519 711.561 75.9519V81.9999H710.089V76.1599C710.089 75.5626 709.977 75.1413 709.753 74.8959C709.529 74.6506 709.198 74.5279 708.761 74.5279C708.313 74.5279 707.918 74.6559 707.577 74.9119C707.236 75.1679 706.916 75.5359 706.617 76.0159V81.9999H705.145V73.5679H706.409L706.537 74.8159C706.836 74.3679 707.204 74.0159 707.641 73.7599C708.089 73.5039 708.58 73.3759 709.113 73.3759Z" fill="white"/>
</svg>
