<svg width="362" height="138" viewBox="0 0 362 138" fill="none" xmlns="http://www.w3.org/2000/svg">
<path d="M361 0.999939C352.515 2.64784 336.747 3.19402 331.841 12.2765C329.448 16.7054 329.117 24.4385 332.072 28.609C337.78 36.6624 340.363 45.9685 338.246 55.8771C335.908 66.8261 325.009 68.6243 315.203 68.8863C293.608 69.4635 272.005 63.5855 251.783 56.8429C234.653 51.1315 218.339 43.5594 201.348 37.5279C189.191 33.2125 175.99 33.0882 163.348 30.9381C152.208 29.0435 140.87 27.5864 129.551 27.5864C122.81 27.5864 115.978 27.1958 109.406 28.9498C100.845 31.2342 91.8888 34.6826 84.1304 38.8913C69.2598 46.9583 61.9246 62.971 68.3623 78.7426C70.7958 84.7043 73.2707 90.5261 73.9565 96.9782C74.4445 101.569 75.0205 106.658 72.2464 110.698C67.0263 118.3 55.4568 122.034 46.913 124.445C35.7573 127.594 24.1274 129.242 13.1159 132.91C9.62232 134.073 5.81921 134.833 2.42029 136.205C1.72849 136.484 1.31188 136.389 1 137" stroke="white" stroke-width="2" stroke-linecap="round" stroke-linejoin="round"/>
</svg>
