<svg width="1003" height="491" viewBox="0 0 1003 491" fill="none" xmlns="http://www.w3.org/2000/svg">
<g opacity="0.29827">
<path d="M1008.08 158.448L443.182 -361.858V-752.19L28.1096 -775C24.9043 -767.456 4.36709 -745.715 7.57176 -733.596C11.43 -719.102 30.8387 -723.735 36.4776 -714.409C43.0661 -703.42 31.7291 -658.749 28.3457 -645.86C21.8759 -621.445 7.09676 -601.665 2.82235 -577.25C-4.35982 -536.263 10.1824 -539.53 37.7242 -513.927C84.141 -470.742 46.9244 -425.952 58.6176 -375.223C68.1146 -333.878 109.605 -312.554 124.8 -271.211C136.553 -239.37 152.697 -231.233 177.746 -207.947C177.153 -222.084 164.51 -263.785 188.253 -260.102C211.817 -256.478 202.736 -221.669 207.247 -207.115C211.045 -194.997 237.933 -170.761 215.616 -159.593C208.196 -155.91 187.066 -170.583 178.577 -174.503C184.572 -155.791 180.774 -136.367 190.271 -118.487C201.608 -97.1621 213.835 -105.359 228.853 -93.7755C244.344 -81.8356 242.683 -68.1137 235.797 -50.0555C228.615 -31.2247 221.196 -34.1353 232.592 -11.4435C240.843 4.95113 254.85 25.742 266.9 38.2163C273.904 45.4633 281.502 47.1267 288.506 56.3932C294.323 64.1154 292.067 74.2142 299.012 81.1638C310.883 93.1036 331.006 93.2819 340.384 108.904C350.831 126.309 338.96 139.437 369.706 137.832C371.309 172.643 377.897 204.185 377.541 238.994C394.695 245.825 422.414 237.687 440.399 234.063C458.266 258.18 481.355 241.429 501.774 254.558C510.678 260.26 508.837 274.517 514.239 279.506C525.339 289.723 533.529 283.308 547.301 286.872C557.51 289.486 565.404 296.97 575.138 299.703C584.338 302.257 599.475 296.258 606.301 304.396C614.492 314.138 600.78 331.958 613.127 339.799C623.395 346.333 638.115 330.77 648.088 333.027C659.721 335.7 693.079 366.174 701.271 376.212C710.59 387.677 719.969 409.062 725.25 423.793C733.501 446.841 732.373 458.127 749.408 474.998C760.27 485.75 749.942 486.522 767.63 489.67C779.204 491.749 794.518 483.373 806.212 482.067C830.549 479.394 855.122 484.027 879.102 479.453C901.421 475.176 922.729 468.166 945.64 464.899C965.465 462.048 1000.37 464.246 1017.94 454.801C1036.99 444.643 1038.71 421.654 1011.17 425.932C1008.97 411.26 1018.77 391.003 1007.85 380.846C1023.04 360.056 1028.56 345.384 1030.93 319.959C1032 308.792 1032.48 296.436 1038 287.05C1043.4 277.783 1058.59 272.259 1061.56 264.299C1066.13 251.943 1058.83 246.419 1053.25 239.528C1049.69 235.073 1039.54 237.212 1036.63 233.291C1031.23 226.103 1036.57 218.678 1033.6 211.431C1024.94 190.462 1014.61 182.205 1008.08 158.444C1008.26 162.424 1008.44 166.463 1008.2 170.384" stroke="white" stroke-width="2" stroke-linecap="round" stroke-linejoin="round"/>
</g>
<path d="M725.367 82C716.78 105.661 736.892 113.964 752.988 129.428C757.758 134.011 758.213 141.581 753.193 146.161C742.397 156.009 701.464 141.682 704.06 154.664C706.742 168.071 741.349 186.83 742.909 188.113C756.605 199.379 829.189 292.992 718.883 284.39C608.577 275.789 630 302.5 630 302.5C648.454 325.341 704.844 324.765 733 387C743.5 401.5 726.308 458.192 725.367 463" stroke="white" stroke-width="2"/>
<path fill-rule="evenodd" clip-rule="evenodd" d="M724.5 471C728.09 471 731 468.09 731 464.5C731 460.91 728.09 458 724.5 458C720.91 458 718 460.91 718 464.5C718 468.09 720.91 471 724.5 471Z" fill="#4AF6CD"/>
<path fill-rule="evenodd" clip-rule="evenodd" d="M359 231C360.657 231 362 229.657 362 228C362 226.343 360.657 225 359 225C357.343 225 356 226.343 356 228C356 229.657 357.343 231 359 231Z" fill="#4AF6CD"/>
<path fill-rule="evenodd" clip-rule="evenodd" d="M660 363C661.657 363 663 361.657 663 360C663 358.343 661.657 357 660 357C658.343 357 657 358.343 657 360C657 361.657 658.343 363 660 363Z" fill="#4AF6CD"/>
<path fill-rule="evenodd" clip-rule="evenodd" d="M578 322C579.657 322 581 320.657 581 319C581 317.343 579.657 316 578 316C576.343 316 575 317.343 575 319C575 320.657 576.343 322 578 322Z" fill="#4AF6CD"/>
<path fill-rule="evenodd" clip-rule="evenodd" d="M729.5 85.9999C733.09 85.9999 736 83.0898 736 79.4999C736 75.9101 733.09 72.9999 729.5 72.9999C725.91 72.9999 723 75.9101 723 79.4999C723 83.0898 725.91 85.9999 729.5 85.9999Z" fill="#4AF6CD"/>
<path d="M536.414 421.784C537.15 421.784 537.779 421.891 538.302 422.104C538.824 422.307 539.331 422.627 539.822 423.064L538.99 423.992C538.574 423.661 538.163 423.421 537.758 423.272C537.363 423.112 536.936 423.032 536.478 423.032C535.902 423.032 535.427 423.165 535.054 423.432C534.68 423.699 534.494 424.088 534.494 424.6C534.494 424.92 534.558 425.192 534.686 425.416C534.814 425.629 535.048 425.827 535.39 426.008C535.742 426.189 536.248 426.381 536.91 426.584C537.603 426.797 538.179 427.027 538.638 427.272C539.096 427.517 539.464 427.859 539.742 428.296C540.03 428.723 540.174 429.267 540.174 429.928C540.174 430.568 540.014 431.133 539.694 431.624C539.384 432.115 538.931 432.499 538.334 432.776C537.747 433.053 537.048 433.192 536.238 433.192C534.712 433.192 533.464 432.717 532.494 431.768L533.326 430.84C533.774 431.203 534.227 431.48 534.686 431.672C535.144 431.853 535.656 431.944 536.222 431.944C536.904 431.944 537.47 431.779 537.918 431.448C538.366 431.107 538.59 430.616 538.59 429.976C538.59 429.613 538.52 429.315 538.382 429.08C538.243 428.835 538.003 428.616 537.662 428.424C537.331 428.232 536.846 428.04 536.206 427.848C535.075 427.507 534.248 427.096 533.726 426.616C533.203 426.136 532.942 425.485 532.942 424.664C532.942 424.109 533.086 423.613 533.374 423.176C533.672 422.739 534.083 422.397 534.606 422.152C535.139 421.907 535.742 421.784 536.414 421.784ZM545.501 424.376C546.685 424.376 547.602 424.771 548.253 425.56C548.914 426.349 549.245 427.421 549.245 428.776C549.245 429.651 549.095 430.424 548.797 431.096C548.498 431.757 548.066 432.275 547.501 432.648C546.935 433.011 546.263 433.192 545.485 433.192C544.301 433.192 543.378 432.797 542.717 432.008C542.055 431.219 541.725 430.147 541.725 428.792C541.725 427.917 541.874 427.149 542.173 426.488C542.471 425.816 542.903 425.299 543.469 424.936C544.034 424.563 544.711 424.376 545.501 424.376ZM545.501 425.56C544.039 425.56 543.309 426.637 543.309 428.792C543.309 430.936 544.034 432.008 545.485 432.008C546.935 432.008 547.661 430.931 547.661 428.776C547.661 426.632 546.941 425.56 545.501 425.56ZM557.948 433H556.684L556.572 431.688C556.252 432.211 555.884 432.595 555.468 432.84C555.052 433.075 554.546 433.192 553.948 433.192C553.212 433.192 552.636 432.968 552.22 432.52C551.804 432.072 551.596 431.437 551.596 430.616V424.568H553.068V430.456C553.068 431.032 553.17 431.443 553.372 431.688C553.575 431.923 553.906 432.04 554.364 432.04C555.186 432.04 555.89 431.555 556.476 430.584V424.568H557.948V433ZM565.245 432.616C564.69 433 564.061 433.192 563.357 433.192C562.642 433.192 562.082 432.989 561.677 432.584C561.282 432.168 561.085 431.571 561.085 430.792V425.704H559.613V424.568H561.085V422.664L562.557 422.488V424.568H564.557L564.397 425.704H562.557V430.728C562.557 431.165 562.631 431.485 562.781 431.688C562.941 431.88 563.202 431.976 563.565 431.976C563.895 431.976 564.269 431.864 564.685 431.64L565.245 432.616ZM570.738 424.376C571.506 424.376 572.103 424.605 572.53 425.064C572.967 425.523 573.186 426.152 573.186 426.952V433H571.714V427.16C571.714 426.563 571.597 426.141 571.362 425.896C571.138 425.651 570.807 425.528 570.37 425.528C569.933 425.528 569.543 425.656 569.202 425.912C568.861 426.168 568.541 426.531 568.242 427V433H566.77V421.192L568.242 421.032V425.736C568.903 424.829 569.735 424.376 570.738 424.376ZM583.179 421.784C583.915 421.784 584.545 421.891 585.067 422.104C585.59 422.307 586.097 422.627 586.587 423.064L585.755 423.992C585.339 423.661 584.929 423.421 584.523 423.272C584.129 423.112 583.702 423.032 583.243 423.032C582.667 423.032 582.193 423.165 581.819 423.432C581.446 423.699 581.259 424.088 581.259 424.6C581.259 424.92 581.323 425.192 581.451 425.416C581.579 425.629 581.814 425.827 582.155 426.008C582.507 426.189 583.014 426.381 583.675 426.584C584.369 426.797 584.945 427.027 585.403 427.272C585.862 427.517 586.23 427.859 586.507 428.296C586.795 428.723 586.939 429.267 586.939 429.928C586.939 430.568 586.779 431.133 586.459 431.624C586.15 432.115 585.697 432.499 585.099 432.776C584.513 433.053 583.814 433.192 583.003 433.192C581.478 433.192 580.23 432.717 579.259 431.768L580.091 430.84C580.539 431.203 580.993 431.48 581.451 431.672C581.91 431.853 582.422 431.944 582.987 431.944C583.67 431.944 584.235 431.779 584.683 431.448C585.131 431.107 585.355 430.616 585.355 429.976C585.355 429.613 585.286 429.315 585.147 429.08C585.009 428.835 584.769 428.616 584.427 428.424C584.097 428.232 583.611 428.04 582.971 427.848C581.841 427.507 581.014 427.096 580.491 426.616C579.969 426.136 579.707 425.485 579.707 424.664C579.707 424.109 579.851 423.613 580.139 423.176C580.438 422.739 580.849 422.397 581.371 422.152C581.905 421.907 582.507 421.784 583.179 421.784ZM593.066 424.376C593.834 424.376 594.431 424.605 594.858 425.064C595.295 425.523 595.514 426.152 595.514 426.952V433H594.042V427.16C594.042 426.563 593.925 426.141 593.69 425.896C593.466 425.651 593.135 425.528 592.698 425.528C592.261 425.528 591.871 425.656 591.53 425.912C591.189 426.168 590.869 426.531 590.57 427V433H589.098V421.192L590.57 421.032V425.736C591.231 424.829 592.063 424.376 593.066 424.376ZM601.641 424.376C602.825 424.376 603.742 424.771 604.393 425.56C605.054 426.349 605.385 427.421 605.385 428.776C605.385 429.651 605.236 430.424 604.937 431.096C604.638 431.757 604.206 432.275 603.641 432.648C603.076 433.011 602.404 433.192 601.625 433.192C600.441 433.192 599.518 432.797 598.857 432.008C598.196 431.219 597.865 430.147 597.865 428.792C597.865 427.917 598.014 427.149 598.313 426.488C598.612 425.816 599.044 425.299 599.609 424.936C600.174 424.563 600.852 424.376 601.641 424.376ZM601.641 425.56C600.18 425.56 599.449 426.637 599.449 428.792C599.449 430.936 600.174 432.008 601.625 432.008C603.076 432.008 603.801 430.931 603.801 428.776C603.801 426.632 603.081 425.56 601.641 425.56ZM611.481 424.376C611.78 424.376 612.057 424.408 612.313 424.472L612.041 425.912C611.785 425.848 611.54 425.816 611.305 425.816C610.782 425.816 610.361 426.008 610.041 426.392C609.721 426.776 609.47 427.373 609.289 428.184V433H607.817V424.568H609.081L609.225 426.28C609.449 425.651 609.753 425.176 610.137 424.856C610.521 424.536 610.969 424.376 611.481 424.376ZM619.872 428.536C619.872 428.781 619.862 429.032 619.84 429.288H614.464C614.528 430.216 614.763 430.899 615.168 431.336C615.574 431.773 616.096 431.992 616.736 431.992C617.142 431.992 617.515 431.933 617.856 431.816C618.198 431.699 618.555 431.512 618.928 431.256L619.568 432.136C618.672 432.84 617.691 433.192 616.624 433.192C615.451 433.192 614.534 432.808 613.872 432.04C613.222 431.272 612.896 430.216 612.896 428.872C612.896 427.997 613.035 427.224 613.312 426.552C613.6 425.869 614.006 425.336 614.528 424.952C615.062 424.568 615.686 424.376 616.4 424.376C617.52 424.376 618.379 424.744 618.976 425.48C619.574 426.216 619.872 427.235 619.872 428.536ZM618.416 428.104C618.416 427.272 618.251 426.637 617.92 426.2C617.59 425.763 617.094 425.544 616.432 425.544C615.227 425.544 614.571 426.429 614.464 428.2H618.416V428.104ZM628.41 420.184V434.568H628.058V420.184H628.41ZM647.237 433H645.765L645.381 428.024C645.221 426.072 645.131 424.573 645.109 423.528L642.725 431.752H641.301L638.789 423.512C638.789 424.845 638.72 426.387 638.581 428.136L638.213 433H636.773L637.685 421.976H639.733L642.053 429.992L644.261 421.976H646.325L647.237 433ZM655.434 431.032C655.434 431.373 655.493 431.629 655.61 431.8C655.728 431.96 655.904 432.083 656.138 432.168L655.802 433.192C655.365 433.139 655.013 433.016 654.746 432.824C654.48 432.632 654.282 432.333 654.154 431.928C653.589 432.771 652.752 433.192 651.642 433.192C650.81 433.192 650.154 432.957 649.674 432.488C649.194 432.019 648.954 431.405 648.954 430.648C648.954 429.752 649.274 429.064 649.914 428.584C650.565 428.104 651.482 427.864 652.666 427.864H653.962V427.24C653.962 426.643 653.818 426.216 653.53 425.96C653.242 425.704 652.8 425.576 652.202 425.576C651.584 425.576 650.826 425.725 649.93 426.024L649.562 424.952C650.608 424.568 651.578 424.376 652.474 424.376C653.466 424.376 654.208 424.621 654.698 425.112C655.189 425.592 655.434 426.28 655.434 427.176V431.032ZM651.978 432.088C652.821 432.088 653.482 431.651 653.962 430.776V428.84H652.858C651.301 428.84 650.522 429.416 650.522 430.568C650.522 431.069 650.645 431.448 650.89 431.704C651.136 431.96 651.498 432.088 651.978 432.088ZM659.981 433.192C659.437 433.192 659.005 433.032 658.685 432.712C658.376 432.381 658.221 431.923 658.221 431.336V421.176L659.693 421V431.304C659.693 431.539 659.731 431.709 659.805 431.816C659.891 431.923 660.029 431.976 660.221 431.976C660.424 431.976 660.605 431.944 660.765 431.88L661.149 432.904C660.797 433.096 660.408 433.192 659.981 433.192ZM664.461 424.568V433H662.989V424.568H664.461ZM663.709 420.52C664.018 420.52 664.269 420.616 664.461 420.808C664.653 421 664.749 421.24 664.749 421.528C664.749 421.816 664.653 422.056 664.461 422.248C664.269 422.429 664.018 422.52 663.709 422.52C663.41 422.52 663.165 422.429 662.973 422.248C662.781 422.056 662.685 421.816 662.685 421.528C662.685 421.24 662.781 421 662.973 420.808C663.165 420.616 663.41 420.52 663.709 420.52ZM671.36 424.376C672.32 424.376 673.083 424.765 673.648 425.544C674.214 426.312 674.496 427.389 674.496 428.776C674.496 429.651 674.363 430.424 674.096 431.096C673.83 431.757 673.446 432.275 672.944 432.648C672.443 433.011 671.856 433.192 671.184 433.192C670.299 433.192 669.552 432.819 668.944 432.072L668.8 433H667.504V421.176L668.976 421V425.624C669.584 424.792 670.379 424.376 671.36 424.376ZM670.832 432.024C671.483 432.024 671.99 431.763 672.352 431.24C672.726 430.707 672.912 429.885 672.912 428.776C672.912 427.635 672.742 426.813 672.4 426.312C672.059 425.8 671.574 425.544 670.944 425.544C670.198 425.544 669.542 425.981 668.976 426.856V430.888C669.2 431.24 669.472 431.517 669.792 431.72C670.123 431.923 670.47 432.024 670.832 432.024ZM683.276 433H682.012L681.9 431.688C681.58 432.211 681.212 432.595 680.796 432.84C680.38 433.075 679.874 433.192 679.276 433.192C678.54 433.192 677.964 432.968 677.548 432.52C677.132 432.072 676.924 431.437 676.924 430.616V424.568H678.396V430.456C678.396 431.032 678.498 431.443 678.7 431.688C678.903 431.923 679.234 432.04 679.692 432.04C680.514 432.04 681.218 431.555 681.804 430.584V424.568H683.276V433ZM686.701 430.968C687.021 430.968 687.288 431.075 687.501 431.288C687.714 431.501 687.821 431.763 687.821 432.072C687.821 432.403 687.725 432.781 687.533 433.208L686.461 435.656H685.405L686.045 433C685.906 432.893 685.794 432.76 685.709 432.6C685.634 432.44 685.597 432.264 685.597 432.072C685.597 431.763 685.704 431.501 685.917 431.288C686.13 431.075 686.392 430.968 686.701 430.968ZM698.331 421.784C698.992 421.784 699.547 421.869 699.995 422.04C700.454 422.211 700.918 422.488 701.387 422.872L700.555 423.848C699.883 423.304 699.174 423.032 698.427 423.032C697.51 423.032 696.768 423.384 696.203 424.088C695.648 424.792 695.371 425.923 695.371 427.48C695.371 428.995 695.648 430.115 696.203 430.84C696.758 431.555 697.494 431.912 698.411 431.912C698.88 431.912 699.291 431.832 699.643 431.672C699.995 431.512 700.368 431.288 700.763 431L701.515 431.96C701.174 432.312 700.736 432.605 700.203 432.84C699.67 433.075 699.056 433.192 698.363 433.192C697.467 433.192 696.667 432.973 695.963 432.536C695.27 432.088 694.726 431.437 694.331 430.584C693.947 429.72 693.755 428.685 693.755 427.48C693.755 426.275 693.958 425.245 694.363 424.392C694.768 423.528 695.318 422.877 696.011 422.44C696.704 422.003 697.478 421.784 698.331 421.784ZM709.3 433L708.468 430.232H704.292L703.46 433H701.924L705.46 421.976H707.38L710.9 433H709.3ZM704.66 429H708.1L706.388 423.24L704.66 429Z" fill="white"/>
<path d="M598.378 70.7839C599.039 70.7839 599.594 70.8693 600.042 71.0399C600.501 71.2106 600.965 71.4879 601.434 71.8719L600.602 72.8479C599.93 72.3039 599.221 72.0319 598.474 72.0319C597.557 72.0319 596.815 72.3839 596.25 73.0879C595.695 73.7919 595.418 74.9226 595.418 76.4799C595.418 77.9946 595.695 79.1146 596.25 79.8399C596.805 80.5546 597.541 80.9119 598.458 80.9119C598.927 80.9119 599.338 80.8319 599.69 80.6719C600.042 80.5119 600.415 80.2879 600.81 79.9999L601.562 80.9599C601.221 81.3119 600.783 81.6053 600.25 81.8399C599.717 82.0746 599.103 82.1919 598.41 82.1919C597.514 82.1919 596.714 81.9733 596.01 81.5359C595.317 81.0879 594.773 80.4373 594.378 79.5839C593.994 78.7199 593.802 77.6853 593.802 76.4799C593.802 75.2746 594.005 74.2453 594.41 73.3919C594.815 72.5279 595.365 71.8773 596.058 71.4399C596.751 71.0026 597.525 70.7839 598.378 70.7839ZM609.401 81.9999H608.137L608.025 80.6879C607.705 81.2106 607.337 81.5946 606.921 81.8399C606.505 82.0746 605.999 82.1919 605.401 82.1919C604.665 82.1919 604.089 81.9679 603.673 81.5199C603.257 81.0719 603.049 80.4373 603.049 79.6159V73.5679H604.521V79.4559C604.521 80.0319 604.623 80.4426 604.825 80.6879C605.028 80.9226 605.359 81.0399 605.817 81.0399C606.639 81.0399 607.343 80.5546 607.929 79.5839V73.5679H609.401V81.9999ZM616.106 73.3759C616.405 73.3759 616.682 73.4079 616.938 73.4719L616.666 74.9119C616.41 74.8479 616.165 74.8159 615.93 74.8159C615.407 74.8159 614.986 75.0079 614.666 75.3919C614.346 75.7759 614.095 76.3733 613.914 77.1839V81.9999H612.442V73.5679H613.706L613.85 75.2799C614.074 74.6506 614.378 74.1759 614.762 73.8559C615.146 73.5359 615.594 73.3759 616.106 73.3759ZM622.278 73.3759C622.576 73.3759 622.854 73.4079 623.11 73.4719L622.838 74.9119C622.582 74.8479 622.336 74.8159 622.102 74.8159C621.579 74.8159 621.158 75.0079 620.838 75.3919C620.518 75.7759 620.267 76.3733 620.086 77.1839V81.9999H618.614V73.5679H619.878L620.022 75.2799C620.246 74.6506 620.55 74.1759 620.934 73.8559C621.318 73.5359 621.766 73.3759 622.278 73.3759ZM630.669 77.5359C630.669 77.7813 630.659 78.0319 630.637 78.2879H625.261C625.325 79.2159 625.56 79.8986 625.965 80.3359C626.371 80.7733 626.893 80.9919 627.533 80.9919C627.939 80.9919 628.312 80.9333 628.653 80.8159C628.995 80.6986 629.352 80.5119 629.725 80.2559L630.365 81.1359C629.469 81.8399 628.488 82.1919 627.421 82.1919C626.248 82.1919 625.331 81.8079 624.669 81.0399C624.019 80.2719 623.693 79.2159 623.693 77.8719C623.693 76.9973 623.832 76.2239 624.109 75.5519C624.397 74.8693 624.803 74.3359 625.325 73.9519C625.859 73.5679 626.483 73.3759 627.197 73.3759C628.317 73.3759 629.176 73.7439 629.773 74.4799C630.371 75.2159 630.669 76.2346 630.669 77.5359ZM629.213 77.1039C629.213 76.2719 629.048 75.6373 628.717 75.1999C628.387 74.7626 627.891 74.5439 627.229 74.5439C626.024 74.5439 625.368 75.4293 625.261 77.1999H629.213V77.1039ZM636.988 73.3759C637.756 73.3759 638.353 73.6053 638.78 74.0639C639.217 74.5226 639.436 75.1519 639.436 75.9519V81.9999H637.964V76.1599C637.964 75.5626 637.852 75.1413 637.628 74.8959C637.404 74.6506 637.073 74.5279 636.636 74.5279C636.188 74.5279 635.793 74.6559 635.452 74.9119C635.111 75.1679 634.791 75.5359 634.492 76.0159V81.9999H633.02V73.5679H634.284L634.412 74.8159C634.711 74.3679 635.079 74.0159 635.516 73.7599C635.964 73.5039 636.455 73.3759 636.988 73.3759ZM646.651 81.6159C646.096 81.9999 645.467 82.1919 644.763 82.1919C644.048 82.1919 643.488 81.9893 643.083 81.5839C642.688 81.1679 642.491 80.5706 642.491 79.7919V74.7039H641.019V73.5679H642.491V71.6639L643.963 71.4879V73.5679H645.963L645.803 74.7039H643.963V79.7279C643.963 80.1653 644.038 80.4853 644.187 80.6879C644.347 80.8799 644.608 80.9759 644.971 80.9759C645.302 80.9759 645.675 80.8639 646.091 80.6399L646.651 81.6159ZM654.011 70.9759V80.6719H658.539L658.363 81.9999H652.491V70.9759H654.011ZM663.141 73.3759C664.325 73.3759 665.242 73.7706 665.893 74.5599C666.554 75.3493 666.885 76.4213 666.885 77.7759C666.885 78.6506 666.736 79.4239 666.437 80.0959C666.138 80.7573 665.706 81.2746 665.141 81.6479C664.576 82.0106 663.904 82.1919 663.125 82.1919C661.941 82.1919 661.018 81.7973 660.357 81.0079C659.696 80.2186 659.365 79.1466 659.365 77.7919C659.365 76.9173 659.514 76.1493 659.813 75.4879C660.112 74.8159 660.544 74.2986 661.109 73.9359C661.674 73.5626 662.352 73.3759 663.141 73.3759ZM663.141 74.5599C661.68 74.5599 660.949 75.6373 660.949 77.7919C660.949 79.9359 661.674 81.0079 663.125 81.0079C664.576 81.0079 665.301 79.9306 665.301 77.7759C665.301 75.6319 664.581 74.5599 663.141 74.5599ZM672.389 73.3759C672.89 73.3759 673.349 73.4506 673.765 73.5999C674.181 73.7386 674.581 73.9679 674.965 74.2879L674.261 75.2159C673.962 75.0026 673.669 74.8479 673.381 74.7519C673.104 74.6453 672.794 74.5919 672.453 74.5919C671.77 74.5919 671.237 74.8639 670.853 75.4079C670.48 75.9519 670.293 76.7573 670.293 77.8239C670.293 78.8906 670.48 79.6799 670.853 80.1919C671.226 80.6933 671.76 80.9439 672.453 80.9439C672.784 80.9439 673.088 80.8959 673.365 80.7999C673.642 80.6933 673.952 80.5279 674.293 80.3039L674.965 81.2639C674.197 81.8826 673.338 82.1919 672.389 82.1919C671.248 82.1919 670.346 81.8079 669.685 81.0399C669.034 80.2719 668.709 79.2106 668.709 77.8559C668.709 76.9599 668.858 76.1759 669.157 75.5039C669.456 74.8319 669.877 74.3093 670.421 73.9359C670.976 73.5626 671.632 73.3759 672.389 73.3759ZM682.481 80.0319C682.481 80.3733 682.54 80.6293 682.657 80.7999C682.775 80.9599 682.951 81.0826 683.185 81.1679L682.849 82.1919C682.412 82.1386 682.06 82.0159 681.793 81.8239C681.527 81.6319 681.329 81.3333 681.201 80.9279C680.636 81.7706 679.799 82.1919 678.689 82.1919C677.857 82.1919 677.201 81.9573 676.721 81.4879C676.241 81.0186 676.001 80.4053 676.001 79.6479C676.001 78.7519 676.321 78.0639 676.961 77.5839C677.612 77.1039 678.529 76.8639 679.713 76.8639H681.009V76.2399C681.009 75.6426 680.865 75.2159 680.577 74.9599C680.289 74.7039 679.847 74.5759 679.249 74.5759C678.631 74.5759 677.873 74.7253 676.977 75.0239L676.609 73.9519C677.655 73.5679 678.625 73.3759 679.521 73.3759C680.513 73.3759 681.255 73.6213 681.745 74.1119C682.236 74.5919 682.481 75.2799 682.481 76.1759V80.0319ZM679.025 81.0879C679.868 81.0879 680.529 80.6506 681.009 79.7759V77.8399H679.905C678.348 77.8399 677.569 78.4159 677.569 79.5679C677.569 80.0693 677.692 80.4479 677.937 80.7039C678.183 80.9599 678.545 81.0879 679.025 81.0879ZM689.76 81.6159C689.206 81.9999 688.576 82.1919 687.872 82.1919C687.158 82.1919 686.598 81.9893 686.192 81.5839C685.798 81.1679 685.6 80.5706 685.6 79.7919V74.7039H684.128V73.5679H685.6V71.6639L687.072 71.4879V73.5679H689.072L688.912 74.7039H687.072V79.7279C687.072 80.1653 687.147 80.4853 687.296 80.6879C687.456 80.8799 687.718 80.9759 688.08 80.9759C688.411 80.9759 688.784 80.8639 689.2 80.6399L689.76 81.6159ZM692.758 73.5679V81.9999H691.286V73.5679H692.758ZM692.006 69.5199C692.315 69.5199 692.566 69.6159 692.758 69.8079C692.95 69.9999 693.046 70.2399 693.046 70.5279C693.046 70.8159 692.95 71.0559 692.758 71.2479C692.566 71.4293 692.315 71.5199 692.006 71.5199C691.707 71.5199 691.462 71.4293 691.27 71.2479C691.078 71.0559 690.982 70.8159 690.982 70.5279C690.982 70.2399 691.078 69.9999 691.27 69.8079C691.462 69.6159 691.707 69.5199 692.006 69.5199ZM698.969 73.3759C700.153 73.3759 701.071 73.7706 701.721 74.5599C702.383 75.3493 702.713 76.4213 702.713 77.7759C702.713 78.6506 702.564 79.4239 702.265 80.0959C701.967 80.7573 701.535 81.2746 700.969 81.6479C700.404 82.0106 699.732 82.1919 698.953 82.1919C697.769 82.1919 696.847 81.7973 696.185 81.0079C695.524 80.2186 695.193 79.1466 695.193 77.7919C695.193 76.9173 695.343 76.1493 695.641 75.4879C695.94 74.8159 696.372 74.2986 696.937 73.9359C697.503 73.5626 698.18 73.3759 698.969 73.3759ZM698.969 74.5599C697.508 74.5599 696.777 75.6373 696.777 77.7919C696.777 79.9359 697.503 81.0079 698.953 81.0079C700.404 81.0079 701.129 79.9306 701.129 77.7759C701.129 75.6319 700.409 74.5599 698.969 74.5599ZM709.113 73.3759C709.881 73.3759 710.478 73.6053 710.905 74.0639C711.342 74.5226 711.561 75.1519 711.561 75.9519V81.9999H710.089V76.1599C710.089 75.5626 709.977 75.1413 709.753 74.8959C709.529 74.6506 709.198 74.5279 708.761 74.5279C708.313 74.5279 707.918 74.6559 707.577 74.9119C707.236 75.1679 706.916 75.5359 706.617 76.0159V81.9999H705.145V73.5679H706.409L706.537 74.8159C706.836 74.3679 707.204 74.0159 707.641 73.7599C708.089 73.5039 708.58 73.3759 709.113 73.3759Z" fill="white"/>
</svg>
